<svg width="32" height="32" viewBox="0 0 32 32" fill="none" xmlns="http://www.w3.org/2000/svg">
<path d="M29.5276 4.19323C29.0476 3.78619 28.2937 3.72795 27.5141 4.04091H27.5129C26.693 4.36987 4.30581 13.9724 3.39445 14.3648C3.22869 14.4224 1.78101 14.9625 1.93013 16.1657C2.06325 17.2505 3.22677 17.6998 3.36885 17.7516L9.06037 19.7004C9.43797 20.9574 10.83 25.5948 11.1378 26.5856C11.3298 27.2032 11.6428 28.0147 12.1913 28.1817C12.6725 28.3673 13.1513 28.1977 13.461 27.9545L16.9407 24.727L22.558 29.1078L22.6917 29.1878C23.0732 29.3568 23.4386 29.4412 23.7874 29.4412C24.0569 29.4412 24.3154 29.3907 24.5625 29.2896C25.4041 28.944 25.7407 28.142 25.7759 28.0512L29.9717 6.24187C30.2277 5.07707 29.8719 4.48443 29.5276 4.19323ZM14.0799 20.48L12.1599 25.6L10.2399 19.2L24.9599 8.31995L14.0799 20.48Z" fill="white"/>
</svg>
