<svg width="32" height="32" viewBox="0 0 32 32" fill="none" xmlns="http://www.w3.org/2000/svg">
<path d="M30.5087 23.4681C29.3107 21.3121 26.2247 18.7214 24.9507 17.5941C24.602 17.2854 24.5647 16.7514 24.882 16.4101C27.3133 13.7974 29.258 10.7954 29.9273 8.98139C30.2227 8.18006 29.6113 7.33339 28.75 7.33339H26.248C25.4233 7.33339 24.9407 7.62939 24.7107 8.10073C22.69 12.2414 20.9567 14.0334 19.7433 15.0807C19.064 15.6674 18.0047 15.1814 18.0047 14.2887C18.0047 12.5687 18.0047 10.3454 18.0047 8.76873C18.0047 8.00406 17.3793 7.38539 16.608 7.38539L12.0373 7.33339C11.462 7.33339 11.1333 7.98473 11.4787 8.44139L12.2333 9.52473C12.5173 9.90006 12.6707 10.3567 12.6707 10.8254L12.6667 15.7041C12.6667 16.5527 11.638 16.9674 11.0273 16.3727C8.96132 14.3607 7.16865 10.2521 6.52332 8.28739C6.33665 7.71873 5.80399 7.33473 5.19999 7.33339L2.73532 7.32739C1.81065 7.32739 1.13465 8.20406 1.38599 9.08673C3.63799 16.9914 8.25865 24.5114 16.4933 25.3267C17.3047 25.4067 18.0047 24.7534 18.0047 23.9447V21.3807C18.0047 20.6454 18.5813 20.0134 19.3227 19.9947C19.3487 19.9941 19.3747 19.9941 19.4007 19.9941C21.5787 19.9941 24.018 23.1641 24.8713 24.6467C25.1167 25.0734 25.5753 25.3334 26.0713 25.3334H29.3867C30.354 25.3334 30.9747 24.3074 30.5087 23.4681Z" fill="white"/>
</svg>
