<svg width="32" height="32" viewBox="0 0 32 32" fill="none" xmlns="http://www.w3.org/2000/svg">
<path d="M15.905 5.66675C11.6699 5.66675 7.73494 5.9685 5.48962 6.43758C5.48484 6.43885 5.48007 6.44015 5.4753 6.44149C3.78369 6.82054 2.19083 8.03224 1.85551 9.92977C1.85507 9.93237 1.85463 9.93498 1.85421 9.93758C1.5966 11.4669 1.33337 13.4605 1.33337 16.3334C1.33337 19.2008 1.5975 21.1416 1.92322 22.7514C2.26676 24.5929 3.82285 25.8413 5.54041 26.2253C5.54862 26.2276 5.55687 26.2298 5.56515 26.2319C7.90851 26.6936 11.7324 27.0001 15.9675 27.0001C20.2026 27.0001 24.0285 26.6936 26.3724 26.2319C26.3807 26.2298 26.389 26.2276 26.3972 26.2253C28.0888 25.8463 29.6816 24.6346 30.017 22.7371C30.0179 22.7323 30.0187 22.7275 30.0196 22.7227C30.2732 21.1622 30.6019 19.1705 30.6667 16.293C30.6668 16.2857 30.6668 16.2783 30.6667 16.2709C30.6667 13.3919 30.3372 11.3859 30.0157 9.79696C29.6748 7.95146 28.117 6.69973 26.3972 6.31519C26.3709 6.30934 26.3444 6.30457 26.3177 6.30086C24.031 5.97938 20.1408 5.66675 15.905 5.66675ZM13.4375 11.3347C13.6845 11.3296 13.9397 11.388 14.1797 11.5235L19.9154 14.7644C20.8827 15.3111 20.8827 16.6904 19.9154 17.2371L14.1797 20.4779C13.2204 21.0193 12.0248 20.3336 12.0248 19.241V12.7592C12.0248 11.9397 12.6967 11.35 13.4375 11.3347Z" fill="white"/>
</svg>
