<svg width="141" height="38" viewBox="0 0 141 38" fill="none" xmlns="http://www.w3.org/2000/svg">
<path fill-rule="evenodd" clip-rule="evenodd" d="M0 17.8095H5.07069V6.15767L11.7033 17.8095H14.5329L21.1655 6.15761V17.8095H26.372V0.976525H19.1508L13.3108 11.4519L7.49281 0.976525H0V17.8095ZM40.1336 0.682373C29.4718 0.682373 28.2721 5.99923 28.2721 9.00839V9.68724C28.2721 12.6512 29.4718 18.1038 40.1336 18.1038H41.1069C51.7239 18.1038 52.9465 12.6511 52.9465 9.68724V9.00857C52.9465 5.99941 51.7015 0.682554 41.1069 0.682554H40.1336V0.682373ZM47.423 9.48328C47.423 11.4289 46.2684 14.0082 40.6091 14.0082C34.9047 14.0082 33.7955 11.3611 33.7955 9.43807V9.16658C33.7955 7.24341 34.8143 4.75467 40.6091 4.75467C46.3138 4.75467 47.423 7.24341 47.423 9.16658V9.48334V9.48328ZM54.8465 0.976221V17.8095H60.0534V6.65542L71.4848 17.8095H76.691V0.976525H71.4848V11.5651L60.732 0.976525H54.8465V0.976221ZM106.66 17.8095H111.935V11.2937L120.695 0.976646H114.742L109.422 7.17583L104.193 0.976525H97.6508L106.66 11.2937V17.8095Z" fill="black"/>
<path fill-rule="evenodd" clip-rule="evenodd" d="M54.8367 20.1901V37.0231H60.0884V30.3487H71.9504V26.5025H60.0884V24.0137H72.2445V20.1901H54.8367ZM110.152 37.3173C118.618 37.3173 120.022 34.4665 120.022 31.6836V31.3669C120.022 28.0183 117.464 26.4798 111.125 26.3667L108.296 26.3214C104.855 26.2536 104.402 25.5975 104.402 24.8735C104.402 24.1495 104.696 23.4255 108.771 23.4255H109.133C113.547 23.4255 113.887 24.8056 114 25.4391H119.478V25.2128C119.478 22.6788 117.667 19.896 109.699 19.896H108.137C100.463 19.896 98.9691 22.5205 98.9691 25.0319V25.2355C98.9691 27.86 100.893 29.9867 107.186 30.1677L110.084 30.2356C113.977 30.3487 114.498 30.9596 114.498 31.9328C114.498 32.8378 114 33.7202 109.564 33.7202H109.246C104.9 33.7202 104.312 32.0685 104.244 31.0504H98.7429V31.2993C98.7429 33.5166 99.7618 37.3176 108.59 37.3176H110.152V37.3173ZM127.898 37.0231H133.218V24.1721H140.484V20.1898H120.655V24.1721H127.898V37.0231Z" fill="black"/>
<path d="M76.7468 20.1917H71.7133V24.0102H76.7468V20.1917Z" fill="black"/>
<path d="M76.7468 26.4951H71.4102V30.3743H76.7468V26.4951Z" fill="black"/>
<path d="M97.002 0.977539H79.2333V4.79612H97.002V0.977539Z" fill="#FCC344"/>
<path d="M97.002 7.40234H79.2333V11.2209H97.002V7.40234Z" fill="#FCC344"/>
<path d="M97.002 13.8274H79.2333V17.646H97.002V13.8274Z" fill="#FCC344"/>
<path d="M97.002 20.313H79.2333V24.1316H97.002V20.313Z" fill="#FCC344"/>
<path d="M97.002 26.7378H79.2333V30.5564H97.002V26.7378Z" fill="#FCC344"/>
<path d="M97.002 33.1626H79.2333V36.9812H97.002V33.1626Z" fill="#FCC344"/>
</svg>
