<svg width="141" height="38" viewBox="0 0 141 38" fill="none" xmlns="http://www.w3.org/2000/svg">
<path fill-rule="evenodd" clip-rule="evenodd" d="M0 17.7663H5.07069V6.11445L11.7033 17.7663H14.5329L21.1655 6.11439V17.7663H26.372V0.933312H19.1508L13.3108 11.4087L7.49281 0.933312H0V17.7663ZM40.1336 0.63916C29.4718 0.63916 28.2721 5.95601 28.2721 8.96517V9.64403C28.2721 12.608 29.4718 18.0605 40.1336 18.0605H41.1069C51.7239 18.0605 52.9465 12.6079 52.9465 9.64403V8.96535C52.9465 5.95619 51.7015 0.639341 41.1069 0.639341H40.1336V0.63916ZM47.423 9.44007C47.423 11.3857 46.2684 13.965 40.6091 13.965C34.9047 13.965 33.7955 11.3179 33.7955 9.39485V9.12337C33.7955 7.2002 34.8143 4.71146 40.6091 4.71146C46.3138 4.71146 47.423 7.2002 47.423 9.12337V9.44013V9.44007ZM54.8465 0.933008V17.7663H60.0534V6.6122L71.4848 17.7663H76.691V0.933312H71.4848V11.5219L60.732 0.933312H54.8465V0.933008ZM106.66 17.7663H111.935V11.2504L120.695 0.933433H114.742L109.422 7.13262L104.193 0.933312H97.6508L106.66 11.2504V17.7663Z" fill="white"/>
<path fill-rule="evenodd" clip-rule="evenodd" d="M54.8367 20.1471V36.9801H60.0884V30.3057H71.9504V26.4595H60.0884V23.9707H72.2445V20.1471H54.8367ZM110.152 37.2743C118.618 37.2743 120.022 34.4235 120.022 31.6406V31.3239C120.022 27.9754 117.464 26.4369 111.125 26.3238L108.296 26.2785C104.855 26.2107 104.402 25.5545 104.402 24.8305C104.402 24.1065 104.696 23.3825 108.771 23.3825H109.133C113.547 23.3825 113.887 24.7626 114 25.3961H119.478V25.1699C119.478 22.6359 117.667 19.853 109.699 19.853H108.137C100.463 19.853 98.9691 22.4775 98.9691 24.9889V25.1925C98.9691 27.817 100.893 29.9438 107.186 30.1248L110.084 30.1926C113.977 30.3057 114.498 30.9167 114.498 31.8898C114.498 32.7948 114 33.6772 109.564 33.6772H109.246C104.9 33.6772 104.312 32.0256 104.244 31.0075H98.7429V31.2563C98.7429 33.4736 99.7618 37.2746 108.59 37.2746H110.152V37.2743ZM127.898 36.9801H133.218V24.1291H140.484V20.1469H120.655V24.1291H127.898V36.9801Z" fill="white"/>
<path d="M76.7468 20.1484H71.7133V23.967H76.7468V20.1484Z" fill="white"/>
<path d="M76.7468 26.4519H71.4102V30.3311H76.7468V26.4519Z" fill="white"/>
<path d="M97.002 0.934326H79.2333V4.7529H97.002V0.934326Z" fill="#FCC344"/>
<path d="M97.002 7.35913H79.2333V11.1777H97.002V7.35913Z" fill="#FCC344"/>
<path d="M97.002 13.7842H79.2333V17.6028H97.002V13.7842Z" fill="#FCC344"/>
<path d="M97.002 20.2698H79.2333V24.0883H97.002V20.2698Z" fill="#FCC344"/>
<path d="M97.002 26.6946H79.2333V30.5132H97.002V26.6946Z" fill="#FCC344"/>
<path d="M97.002 33.1194H79.2333V36.938H97.002V33.1194Z" fill="#FCC344"/>
</svg>
